<?xml version="1.0" encoding="utf-8"?>
<!-- Generator: Adobe Illustrator 27.5.0, SVG Export Plug-In . SVG Version: 6.00 Build 0)  -->
<svg version="1.1" xmlns="http://www.w3.org/2000/svg" xmlns:xlink="http://www.w3.org/1999/xlink" x="0px" y="0px"
	 viewBox="0 0 750 500" style="enable-background:new 0 0 750 500;" xml:space="preserve">
<g id="BACKGROUND">
	<g>
		<rect style="fill:#FFFFFF;" width="750" height="500"/>
		<g>
			<defs>
				<rect id="SVGID_1_" width="750" height="500"/>
			</defs>
			<clipPath id="SVGID_00000047041909386179650890000001294989616536693395_">
				<use xlink:href="#SVGID_1_"  style="overflow:visible;"/>
			</clipPath>
			<g style="clip-path:url(#SVGID_00000047041909386179650890000001294989616536693395_);">
				<path style="fill:#EBEBFC;" d="M82.367,190.68c57.597,2.798,115.646-3.91,171.087-19.768
					c84.379-24.136,161.269-68.775,242.841-101.156c81.572-32.381,173.376-52.302,256.682-24.688
					c3.502-26.281,7.003-52.562,10.504-78.843c-260.455,6.774-521.018,9.392-781.556,7.852c2.609,0.015,0.732,60.254,0.359,65.769
					c-1.521,22.537-4.718,44.962-9.571,67.023c-3.128,14.221-12.996,34.592-7.127,49.23c6.057,15.106,28.739,19.67,42.513,23.529
					C32.266,186.399,57.348,189.465,82.367,190.68z"/>
				<path style="fill:#EBEBFC;" d="M661.874,306.694c-57.597-2.798-115.645,3.909-171.087,19.768
					c-84.379,24.136-161.269,68.775-242.841,101.156C166.374,459.998,74.57,479.92-8.736,452.306
					c-3.501,26.281-7.003,52.562-10.504,78.843c260.455-6.774,521.018-9.392,781.556-7.852c-2.609-0.015-0.732-60.254-0.359-65.769
					c1.521-22.537,4.718-44.962,9.571-67.023c3.128-14.221,12.996-34.592,7.127-49.23c-6.057-15.106-28.739-19.67-42.513-23.529
					C711.975,310.975,686.893,307.909,661.874,306.694z"/>
				<path style="fill:#F5F5FF;" d="M775.596,385.002c-45.331-3.042-91.195-2.763-135.777,5.989
					C548.628,408.891,466.682,461.334,375,476.517c23.184,4.141,46.935-0.479,70.031-5.087
					c34.512-6.885,69.024-13.77,103.535-20.655c40.696-8.119,81.533-16.256,122.94-19.01c41.407-2.754,83.656,0.023,122.981,13.278
					c-3.187-1.074,20.61-38.708,20.757-43.121C815.829,384.353,787.683,385.813,775.596,385.002z"/>
				<path style="fill:#F5F5FF;" d="M227.907,96.476c36.801-12.645,72.525-28.335,109.585-40.201s76.007-19.902,114.778-16.58
					c-32.454-9.449-66.347-13.942-100.142-13.276C265.765,28.123,183.293,62.995,97.301,71.16
					C46.345,75.999-5.501,71.302-54.758,57.383c1.858,0.525-17.574,25.475-19.228,27.392c-5.577,6.464-10.881,13.776-4.136,21.755
					c6.303,7.456,22.824,8.9,31.827,11.027c12.51,2.955,25.171,5.261,37.912,6.963c50.688,6.769,102.381,3.903,152.519-5.647
					C172.554,113.459,200.552,105.875,227.907,96.476z"/>
			</g>
		</g>
	</g>
</g>
<g id="OBJECTS">
	<g>
		<path style="fill:#252D3D;" d="M466.553,435.195H291.836c-9.122,0-16.517-7.395-16.517-16.517V90.337
			c0-9.122,7.395-16.517,16.517-16.517h174.717c9.122,0,16.517,7.395,16.517,16.517v328.341
			C483.071,427.8,475.676,435.195,466.553,435.195z"/>
		<path style="fill:#3F4459;" d="M464.946,430.688H285.054c-7.693,0-13.93-6.237-13.93-13.93V83.242
			c0-7.693,6.237-13.93,13.93-13.93h179.892c7.693,0,13.93,6.236,13.93,13.93v333.516
			C478.876,424.451,472.639,430.688,464.946,430.688z"/>
		
			<line style="fill:none;stroke:#FFFFFF;stroke-width:2;stroke-linecap:round;stroke-linejoin:round;stroke-miterlimit:10;" x1="351.159" y1="88.051" x2="398.841" y2="88.051"/>
		<path style="fill:#31384C;" d="M478.876,288.628l-207.751,73.783v54.324c0,7.706,6.247,13.954,13.954,13.954h179.844
			c7.706,0,13.954-6.247,13.954-13.954V288.628z"/>
		<path style="fill:none;stroke:#FFFFFF;stroke-width:2;stroke-linecap:round;stroke-linejoin:round;stroke-miterlimit:10;" d="
			M462.568,422.71H287.432c-4.109,0-7.44-3.331-7.44-7.44V84.73c0-4.109,3.331-7.44,7.44-7.44h175.136c4.109,0,7.44,3.331,7.44,7.44
			v330.54C470.008,419.379,466.677,422.71,462.568,422.71z"/>
		<g style="opacity:0.08;">
			<polygon style="fill:#FFFFFF;" points="373.076,430.688 323.463,430.688 402.727,69.312 452.341,69.312 			"/>
			<polygon style="fill:#FFFFFF;" points="312.975,430.688 294.196,430.688 373.461,69.312 392.239,69.312 			"/>
		</g>
	</g>
	<g>
		<path style="fill:#3F4459;" d="M349.157,254.508H244.59c-7.049,0-12.763-5.714-12.763-12.763V137.178
			c0-7.049,5.714-12.763,12.763-12.763h104.566c7.049,0,12.763,5.714,12.763,12.763v104.566
			C361.92,248.793,356.206,254.508,349.157,254.508z"/>
		<path style="fill:#F5F5FF;" d="M347.992,251.041H238.806c-5.773,0-10.453-4.68-10.453-10.453V131.401
			c0-5.773,4.68-10.453,10.453-10.453h109.186c5.773,0,10.453,4.68,10.453,10.453v109.187
			C358.446,246.361,353.766,251.041,347.992,251.041z"/>
		<path style="fill:#CCCCFF;" d="M238.806,251.04h109.186c5.773,0,10.453-4.68,10.453-10.453v-49.424l-130.093,46.203v3.221
			C228.353,246.361,233.033,251.04,238.806,251.04z"/>
		<text transform="matrix(1 0 0 1 258.6077 225.757)" style="fill:#F29F05; font-family:'Antonio-Bold'; font-size:91.5847px;">UI</text>
	</g>
	<g>
		<path style="fill:#3F4459;" d="M508.884,391.487H404.318c-7.049,0-12.763-5.714-12.763-12.763V274.158
			c0-7.049,5.714-12.763,12.763-12.763h104.566c7.049,0,12.763,5.714,12.763,12.763v104.566
			C521.647,385.773,515.933,391.487,508.884,391.487z"/>
		<path style="fill:#F5F5FF;" d="M507.72,388.02H398.533c-5.773,0-10.453-4.68-10.453-10.453V268.381
			c0-5.773,4.68-10.453,10.453-10.453H507.72c5.773,0,10.453,4.68,10.453,10.453v109.186
			C518.173,383.34,513.493,388.02,507.72,388.02z"/>
		<path style="fill:#CCCCFF;" d="M398.533,388.02H507.72c5.773,0,10.453-4.68,10.453-10.453v-49.423L388.08,374.346v3.221
			C388.08,383.34,392.76,388.02,398.533,388.02z"/>
		<text transform="matrix(1 0 0 1 410.4202 362.7366)" style="fill:#F21D93; font-family:'Antonio-Bold'; font-size:91.5847px;">UX</text>
	</g>
	<g>
		
			<ellipse transform="matrix(0.2338 -0.9723 0.9723 0.2338 224.9878 592.7251)" style="fill:#3F4459;" cx="488.565" cy="153.613" rx="40.405" ry="40.405"/>
		
			<ellipse transform="matrix(0.1993 -0.9799 0.9799 0.1993 240.5994 597.2322)" style="fill:#F5F5FF;" cx="485.77" cy="151.384" rx="40.405" ry="40.405"/>
		<path style="fill:#FFFFFF;" d="M485.77,162.938L485.77,162.938c-5.682,0-10.288-4.606-10.288-10.288v-14.117h20.577v14.117
			C496.058,158.332,491.452,162.938,485.77,162.938z"/>
		<path style="fill:#3F4459;" d="M492.389,140.678c-0.557,0.311-1.13,0.571-1.667,0.782c-3.601,1.417-7.594,1.852-11.431,1.992
			c-0.506,0.018-1.012,0.031-1.519,0.04c-1.496,0.026-3.165,0.193-4.54-0.513c-0.21-0.108-0.43-0.266-0.458-0.501
			c-0.024-0.199,0.099-0.382,0.208-0.55c0.887-1.378,1.031-3.052,1.733-4.509c2.762-5.731,10.475-8.126,16.343-6.49
			c2.092,0.583,3.852,2.525,4.397,4.603C496.077,137.903,494.329,139.596,492.389,140.678z"/>
		<path style="fill:#3F4459;" d="M497.437,137.744c-0.148,1.593-0.748,3.105-1.342,4.59c0.041-0.103-1.416-1.871-1.589-2.103
			c-0.555-0.745-1.069-1.525-1.439-2.38c-0.492-1.137-0.715-2.427-0.403-3.626c0.094-0.362,0.239-0.718,0.478-1.006
			c1.33-1.601,3.172-0.051,3.804,1.31C497.408,135.523,497.538,136.66,497.437,137.744z"/>
		<path style="fill:#F29F05;" d="M494.9,161.549c-2.279,2.45-5.521,3.991-9.13,3.991l0,0c-3.61,0-6.852-1.541-9.13-3.991
			c-6.482,3.324-10.927,10.058-10.927,17.844v7.06c5.912,3.389,12.755,5.336,20.058,5.336c7.302,0,14.146-1.947,20.057-5.336v-7.06
			C505.827,171.607,501.383,164.873,494.9,161.549z"/>
	</g>
	<g>
		<path style="fill:#210D34;" d="M295.109,345.276h-103.55c-3.351,0-6.068-2.717-6.068-6.068v-46.085
			c0-3.351,2.717-6.068,6.068-6.068h103.55c3.351,0,6.068,2.717,6.068,6.068v46.085C301.177,342.559,298.46,345.276,295.109,345.276
			z"/>
		<path style="fill:#F21D93;" d="M294.373,342.884H187.809c-2.519,0-4.561-2.042-4.561-4.561v-49.099
			c0-2.519,2.042-4.561,4.561-4.561h106.564c2.519,0,4.561,2.042,4.561,4.561v49.099
			C298.934,340.842,296.892,342.884,294.373,342.884z"/>
		<g>
			<path style="fill:#FFFFFF;" d="M258.276,306.603c-1.996-7.2-8.581-12.493-16.417-12.493c-6.791,0-12.638,3.98-15.38,9.726
				c-7.119,0.678-12.688,6.67-12.688,13.966c0,7.751,6.283,14.034,14.034,14.034h26.249c7.172,0,12.987-5.814,12.987-12.987v-2.104
				C267.061,311.582,263.242,307.321,258.276,306.603z"/>
			<polygon style="fill:#3F4459;" points="241.091,305.284 232.616,313.76 236.147,313.76 236.147,325.06 246.035,325.06 
				246.035,313.76 249.566,313.76 			"/>
		</g>
		<g style="opacity:0.18;">
			<polygon style="fill:#FFFFFF;" points="274.011,342.884 286.782,284.663 237.168,284.663 224.398,342.884 			"/>
			<polygon style="fill:#FFFFFF;" points="213.91,342.884 226.68,284.663 207.902,284.663 195.131,342.884 			"/>
		</g>
	</g>
	<g>
		<g>
			<circle style="fill:#FFFFFF;" cx="411.929" cy="184.516" r="7.847"/>
			<circle style="fill:#F21D93;" cx="411.929" cy="184.516" r="5.945"/>
		</g>
		<g>
			<circle style="fill:#FFFFFF;" cx="411.929" cy="207.729" r="7.847"/>
			<circle style="fill:#F29F05;" cx="411.929" cy="207.729" r="5.945"/>
		</g>
		<g>
			
				<ellipse transform="matrix(0.229 -0.9734 0.9734 0.229 92.7976 579.0447)" style="fill:#FFFFFF;" cx="411.929" cy="230.943" rx="7.847" ry="7.847"/>
			<circle style="fill:#3F4459;" cx="411.929" cy="230.943" r="5.945"/>
		</g>
	</g>
	<g>
		<g>
			<path style="fill:none;stroke:#F29F05;stroke-miterlimit:10;" d="M352.009,393.937h-34.314c-6.402,0-11.591-5.19-11.591-11.591
				l0,0c0-6.402,5.189-11.591,11.591-11.591h34.314c6.402,0,11.591,5.189,11.591,11.591l0,0
				C363.6,388.747,358.41,393.937,352.009,393.937z"/>
			
				<ellipse transform="matrix(0.9247 -0.3807 0.3807 0.9247 -119.1213 162.4068)" style="fill:#F5F5FF;" cx="351.009" cy="382.346" rx="8.648" ry="8.649"/>
		</g>
		<g>
			<path style="fill:#F29F05;" d="M352.009,426.612h-34.314c-6.402,0-11.591-5.19-11.591-11.591l0,0
				c0-6.402,5.189-11.591,11.591-11.591h34.314c6.402,0,11.591,5.189,11.591,11.591l0,0
				C363.6,421.422,358.41,426.612,352.009,426.612z"/>
			<circle style="fill:#F5F5FF;" cx="317.83" cy="415.021" r="8.648"/>
		</g>
	</g>
	<g>
		
			<ellipse transform="matrix(0.2277 -0.9737 0.9737 0.2277 38.9365 271.0514)" style="fill:#3F4459;" cx="190.35" cy="110.979" rx="20.597" ry="20.597"/>
		
			<ellipse transform="matrix(0.2215 -0.9752 0.9752 0.2215 40.4465 269.3773)" style="fill:#9B0CDA;" cx="188.943" cy="109.356" rx="20.597" ry="20.597"/>
		<path style="fill:#F5F5FF;" d="M199.97,106.575h-2.597c-0.138-0.419-0.309-0.823-0.505-1.212l1.839-1.839
			c0.437-0.437,0.437-1.146,0-1.583l-2.348-2.348c-0.437-0.437-1.146-0.437-1.584,0l-1.839,1.839
			c-0.389-0.196-0.792-0.367-1.212-0.506v-2.597c0-0.618-0.501-1.12-1.12-1.12h-3.321c-0.618,0-1.12,0.501-1.12,1.12v2.597
			c-0.419,0.138-0.823,0.309-1.212,0.506l-1.839-1.839c-0.437-0.437-1.146-0.437-1.583,0l-2.348,2.348
			c-0.437,0.437-0.437,1.146,0,1.583l1.839,1.839c-0.196,0.389-0.367,0.793-0.505,1.212h-2.597c-0.618,0-1.12,0.501-1.12,1.12v3.321
			c0,0.618,0.501,1.12,1.12,1.12h2.597c0.138,0.419,0.309,0.823,0.505,1.212l-1.839,1.839c-0.437,0.437-0.437,1.146,0,1.584
			l2.348,2.348c0.437,0.437,1.146,0.437,1.583,0l1.839-1.839c0.389,0.196,0.793,0.367,1.212,0.506v2.597
			c0,0.618,0.501,1.12,1.12,1.12h3.321c0.618,0,1.12-0.501,1.12-1.12v-2.597c0.419-0.138,0.823-0.309,1.212-0.506l1.839,1.839
			c0.437,0.437,1.146,0.437,1.584,0l2.348-2.348c0.437-0.437,0.437-1.146,0-1.584l-1.839-1.839c0.196-0.389,0.367-0.793,0.505-1.212
			h2.597c0.618,0,1.12-0.501,1.12-1.12v-3.321C201.09,107.077,200.588,106.575,199.97,106.575z M188.943,113.913
			c-2.517,0-4.557-2.04-4.557-4.557c0-2.517,2.04-4.557,4.557-4.557c2.517,0,4.557,2.04,4.557,4.557
			C193.5,111.873,191.46,113.913,188.943,113.913z"/>
	</g>
	<g>
		
			<ellipse transform="matrix(0.8412 -0.5408 0.5408 0.8412 -123.6119 371.2471)" style="fill:#3F4459;" cx="570.163" cy="396.046" rx="20.597" ry="20.597"/>
		
			<ellipse transform="matrix(0.2318 -0.9728 0.9728 0.2318 53.2402 856.2643)" style="fill:#F29F05;" cx="568.757" cy="394.424" rx="20.597" ry="20.597"/>
		
			<line style="fill:none;stroke:#F21D93;stroke-width:2;stroke-linecap:round;stroke-miterlimit:10;" x1="558.545" y1="388.612" x2="578.968" y2="388.612"/>
		
			<line style="fill:none;stroke:#F21D93;stroke-width:2;stroke-linecap:round;stroke-miterlimit:10;" x1="558.545" y1="394.424" x2="578.968" y2="394.424"/>
		
			<line style="fill:none;stroke:#F21D93;stroke-width:2;stroke-linecap:round;stroke-miterlimit:10;" x1="558.545" y1="400.235" x2="578.968" y2="400.235"/>
	</g>
	<g>
		<g>
			<g>
				<polyline style="fill:none;stroke:#3F4459;stroke-width:2;stroke-linecap:round;stroke-linejoin:round;" points="
					258.729,383.456 210.906,383.456 189.234,405.128 153.447,405.128 				"/>
				<g>
					<rect x="255.264" y="380.155" style="fill:#3F4459;" width="6.602" height="6.602"/>
				</g>
				<g>
					<rect x="150.311" y="401.827" style="fill:#3F4459;" width="6.602" height="6.602"/>
				</g>
			</g>
		</g>
		<g>
			<g>
				<polyline style="fill:none;stroke:#3F4459;stroke-width:2;stroke-linecap:round;stroke-linejoin:round;" points="
					605.887,247.723 558.063,247.723 538.476,226.051 500.605,226.051 				"/>
				<g>
					<rect x="602.421" y="244.423" style="fill:#3F4459;" width="6.602" height="6.602"/>
				</g>
				<g>
					<rect x="497.469" y="222.751" style="fill:#3F4459;" width="6.602" height="6.602"/>
				</g>
			</g>
		</g>
		<g>
			<g>
				<path style="fill:none;stroke:#3F4459;stroke-width:2;stroke-linecap:round;stroke-linejoin:round;" d="M209.896,230.943
					h-31.015c0,0-20.714-20.295-22.38-20.295c-1.411,0-37.153,0-48.064,0"/>
				<g>
					<rect x="206.43" y="227.642" style="fill:#3F4459;" width="6.602" height="6.602"/>
				</g>
				<g>
					<rect x="105.304" y="207.347" style="fill:#3F4459;" width="6.602" height="6.602"/>
				</g>
			</g>
		</g>
		<g>
			<g>
				<polyline style="fill:none;stroke:#3F4459;stroke-width:2;stroke-linecap:round;stroke-linejoin:round;" points="
					505.349,82.429 535.553,82.429 545.385,70.513 586.218,70.513 				"/>
				<g>
					<rect x="502.214" y="79.128" style="fill:#3F4459;" width="6.602" height="6.602"/>
				</g>
				<g>
					<rect x="582.753" y="67.212" style="fill:#3F4459;" width="6.602" height="6.602"/>
				</g>
			</g>
		</g>
	</g>
	<g>
		<path style="fill:#FFFFFF;stroke:#3F4459;stroke-width:2;stroke-miterlimit:10;" d="M149.578,390.734H35.781
			c-4.721,0-8.547-3.827-8.547-8.547v-48.211c0-4.721,3.827-8.547,8.547-8.547h113.797c4.721,0,8.547,3.827,8.547,8.547v48.211
			C158.125,386.908,154.299,390.734,149.578,390.734z"/>
		<rect x="44.096" y="335.647" style="fill:none;" width="73.704" height="50.857"/>
		<text transform="matrix(1 0 0 1 44.0959 342.6043)"><tspan x="0" y="0" style="fill:#3F4459; font-family:'Antonio-Light'; font-size:8px;">Lorem ipsum dolor sit </tspan><tspan x="0" y="9.6" style="fill:#3F4459; font-family:'Antonio-Light'; font-size:8px;">amet, consectetuer </tspan><tspan x="0" y="19.2" style="fill:#3F4459; font-family:'Antonio-Light'; font-size:8px;">adipiscing elit, sed diam </tspan><tspan x="0" y="28.8" style="fill:#3F4459; font-family:'Antonio-Light'; font-size:8px;">nonummy nibh euismod </tspan><tspan x="0" y="38.399" style="fill:#3F4459; font-family:'Antonio-Light'; font-size:8px;">tincidunt ut laoreet.</tspan></text>
		<g>
			
				<line style="fill:none;stroke:#9B0CDA;stroke-width:2;stroke-linecap:round;stroke-miterlimit:10;" x1="125.349" y1="357.494" x2="142.727" y2="357.494"/>
			<polyline style="fill:none;stroke:#9B0CDA;stroke-width:2;stroke-linecap:round;stroke-miterlimit:10;" points="138.348,364.287 
				144.768,357.494 138.348,350.7 			"/>
		</g>
	</g>
	<g>
		<path style="fill:#FFFFFF;stroke:#3F4459;stroke-width:2;stroke-miterlimit:10;" d="M711.922,157.067H598.125
			c-4.721,0-8.547-3.827-8.547-8.547v-48.211c0-4.72,3.827-8.547,8.547-8.547h113.797c4.721,0,8.547,3.827,8.547,8.547v48.211
			C720.469,153.241,716.642,157.067,711.922,157.067z"/>
		<rect x="599.619" y="100.527" style="fill:none;" width="91.703" height="19.124"/>
		<text transform="matrix(1 0 0 1 599.6183 107.4835)"><tspan x="0" y="0" style="fill:#3F4459; font-family:'Antonio-Bold'; font-size:8px;">Lorem ipsum</tspan><tspan x="39.633" y="0" style="fill:#3F4459; font-family:'Antonio-Light'; font-size:8px;"> dolor sit amet, </tspan><tspan x="0" y="9.6" style="fill:#3F4459; font-family:'Antonio-Light'; font-size:8px;">consectetuer adipiscing elit </tspan></text>
		<g>
			
				<ellipse transform="matrix(0.2308 -0.973 0.973 0.2308 344.7226 712.1232)" style="fill:#F21D93;" cx="622.768" cy="138.03" rx="10.706" ry="10.706"/>
			<polygon style="fill:#F5F5FF;" points="624.54,133.335 624.54,142.725 618.807,138.03 			"/>
		</g>
		<g>
			
				<ellipse transform="matrix(0.1596 -0.9872 0.9872 0.1596 443.1743 796.6647)" style="fill:#F21D93;" cx="689.515" cy="138.03" rx="10.706" ry="10.706"/>
			<polygon style="fill:#F5F5FF;" points="687.742,142.725 687.742,133.335 693.475,138.03 			"/>
		</g>
		<g>
			
				<ellipse transform="matrix(0.2287 -0.9735 0.9735 0.2287 371.7075 745.2131)" style="fill:#F21D93;" cx="656.141" cy="138.03" rx="10.706" ry="10.706"/>
			<rect x="653.125" y="133.917" style="fill:#F5F5FF;" width="2.133" height="8.227"/>
			<rect x="657.025" y="133.917" style="fill:#F5F5FF;" width="2.133" height="8.227"/>
		</g>
		<path style="fill:#F29F05;" d="M710.457,117.519h-14.269c-1.219,0-2.207-0.988-2.207-2.207v-14.269
			c0-1.219,0.988-2.207,2.207-2.207h14.269c1.219,0,2.207,0.988,2.207,2.207v14.269
			C712.663,116.531,711.675,117.519,710.457,117.519z"/>
	</g>
</g>
</svg>
